<svg xmlns="http://www.w3.org/2000/svg" width="54" height="54" viewBox="0 0 54 54"><g transform="translate(-182.996 -585.304)"><rect width="54" height="54" transform="translate(182.996 585.304)" fill="none"/><path d="M205.833,627.194h20.716a3.8,3.8,0,0,1,.415.015v-.014a6.136,6.136,0,1,0-1.48-12.086.6.6,0,0,1-.74-.493,8.924,8.924,0,0,0-17.74,1.4c0,.241.018.48.036.718a.6.6,0,0,1-.179.48.615.615,0,0,1-.485.169,5.173,5.173,0,0,0-.544-.031,4.924,4.924,0,0,0,0,9.849M205.8,616.14c0-.042,0-.086,0-.13a10.13,10.13,0,0,1,20.019-2.2,7.077,7.077,0,0,1,1.146-.094,7.341,7.341,0,0,1,0,14.682H205.833a6.129,6.129,0,0,1-.033-12.259" fill="#fff" stroke="#fff" stroke-width="0.5"/><path d="M193.839,610.056a9.745,9.745,0,0,1,9.734-9.734,9.165,9.165,0,0,1,7.932,4.146.6.6,0,0,1-1.006.665,7.966,7.966,0,0,0-6.926-3.606,8.53,8.53,0,0,0-4.617,15.7.6.6,0,0,1,.179.833.6.6,0,0,1-.833.18,9.7,9.7,0,0,1-4.462-8.185" fill="#fff" stroke="#fff" stroke-width="0.5"/><path d="M203.444,597.341a.6.6,0,0,1-.6-.6v-4.814a.6.6,0,0,1,1.2,0v4.814a.6.6,0,0,1-.6.6" fill="#fff" stroke="#fff" stroke-width="0.5"/><path d="M196.853,599.217a.6.6,0,0,1-.316.09.606.606,0,0,1-.514-.285l-2.533-4.093a.6.6,0,1,1,1.025-.634l2.533,4.091a.6.6,0,0,1-.2.83" fill="#fff" stroke="#fff" stroke-width="0.5"/><path d="M191.871,604.286a.616.616,0,0,1-.284-.071l-4.245-2.274a.6.6,0,1,1,.569-1.062l4.245,2.274a.6.6,0,0,1-.285,1.134" fill="#fff" stroke="#fff" stroke-width="0.5"/><path d="M185.5,609.226h0l4.815.014a.6.6,0,0,1,0,1.205h0l-4.815-.014a.6.6,0,0,1,0-1.205" fill="#fff" stroke="#fff" stroke-width="0.5"/><path d="M187.4,617.939l4.227-2.311a.6.6,0,0,1,.577,1.057L187.979,619a.6.6,0,0,1-.289.073.6.6,0,0,1-.289-1.13" fill="#fff" stroke="#fff" stroke-width="0.5"/><path d="M219.485,601.776l-4.227,2.31a.591.591,0,0,1-.289.074.6.6,0,0,1-.289-1.13l4.227-2.311a.6.6,0,1,1,.577,1.057" fill="#fff" stroke="#fff" stroke-width="0.5"/><path d="M195.969,620.676a.6.6,0,0,1,1.021.639l-2.554,4.085a.6.6,0,0,1-.511.284.614.614,0,0,1-.319-.091.6.6,0,0,1-.191-.831l2.554-4.085Z" fill="#fff" stroke="#fff" stroke-width="0.5"/><path d="M210.917,599.04a.6.6,0,1,1-1.021-.64l2.555-4.084a.6.6,0,1,1,1.02.639l-2.554,4.085Z" fill="#fff" stroke="#fff" stroke-width="0.5"/></g></svg>