<svg xmlns="http://www.w3.org/2000/svg" width="45" height="45" viewBox="0 0 45 45"><g transform="translate(-93.996 -587.304)"><rect width="45" height="45" transform="translate(93.996 587.304)" fill="none"/><path d="M116.2,619.877a9.936,9.936,0,1,1,9.935-9.936,9.947,9.947,0,0,1-9.935,9.936m0-21.275a11.339,11.339,0,1,0,11.339,11.339A11.351,11.351,0,0,0,116.2,598.6" fill="#fff" stroke="#fff" stroke-width="0.5"/><path d="M116.2,595.278a.7.7,0,0,0,.7-.7v-5.6a.7.7,0,0,0-1.4,0v5.6a.7.7,0,0,0,.7.7" fill="#fff" stroke="#fff" stroke-width="0.5"/><path d="M116.2,624.443a.7.7,0,0,0-.7.7v5.6a.7.7,0,0,0,1.4,0v-5.6a.7.7,0,0,0-.7-.7" fill="#fff" stroke="#fff" stroke-width="0.5"/><path d="M123.88,597.463a.7.7,0,0,0,.966-.228l2.951-4.766a.7.7,0,0,0-1.194-.739l-2.951,4.768a.7.7,0,0,0,.228.965" fill="#fff" stroke="#fff" stroke-width="0.5"/><path d="M108.525,622.259a.7.7,0,0,0-.966.227l-2.951,4.766a.7.7,0,0,0,1.194.739l2.951-4.768a.7.7,0,0,0-.228-.965" fill="#fff" stroke="#fff" stroke-width="0.5"/><path d="M129.682,603.366a.7.7,0,0,0,.331-.083l4.945-2.649a.7.7,0,1,0-.662-1.236l-4.945,2.648a.7.7,0,0,0,.331,1.32" fill="#fff" stroke="#fff" stroke-width="0.5"/><path d="M102.381,616.483l-4.948,2.648a.7.7,0,1,0,.663,1.237l4.946-2.648a.7.7,0,1,0-.661-1.237" fill="#fff" stroke="#fff" stroke-width="0.5"/><path d="M137.1,609.12h0l-5.61.016a.7.7,0,0,0,0,1.4h0l5.61-.016a.7.7,0,0,0,0-1.4" fill="#fff" stroke="#fff" stroke-width="0.5"/><path d="M101.6,609.923a.7.7,0,0,0-.7-.7h0l-5.61.016a.7.7,0,0,0,0,1.4h0l5.61-.016a.7.7,0,0,0,.7-.7" fill="#fff" stroke="#fff" stroke-width="0.5"/><path d="M134.891,619.271l-4.925-2.691a.7.7,0,1,0-.673,1.231l4.924,2.69a.686.686,0,0,0,.336.088.7.7,0,0,0,.338-1.318" fill="#fff" stroke="#fff" stroke-width="0.5"/><path d="M103.114,601.9l-4.924-2.691a.7.7,0,0,0-.674,1.231l4.924,2.691a.7.7,0,1,0,.674-1.231" fill="#fff" stroke="#fff" stroke-width="0.5"/><path d="M124.909,622.458a.7.7,0,0,0-1.189.744l2.974,4.759a.7.7,0,0,0,1.19-.745l-2.975-4.758Z" fill="#fff" stroke="#fff" stroke-width="0.5"/><path d="M107.5,597.256a.7.7,0,1,0,1.19-.744l-2.975-4.759a.7.7,0,0,0-1.19.744l2.975,4.759Z" fill="#fff" stroke="#fff" stroke-width="0.5"/></g></svg>